<svg xmlns="http://www.w3.org/2000/svg" width="16" height="16" viewBox="0 0 16 16" fill="none">
<path fill-rule="evenodd" clip-rule="evenodd" d="M7.99996 1.17407C7.49563 1.17407 7.05959 1.50466 6.18751 2.16583L2.52251 4.94446C1.93964 5.38637 1.6482 5.60732 1.49158 5.92261C1.33496 6.23789 1.33496 6.60362 1.33496 7.33507V12.2083C1.33496 13.6225 1.33496 14.3296 1.7743 14.769C2.21364 15.2083 2.92075 15.2083 4.33496 15.2083H5.32361L5.32361 10.9472V10.9472C5.3236 10.4698 5.32359 10.0781 5.36303 9.76852C5.40416 9.44563 5.49355 9.15941 5.71244 8.9284C5.93384 8.69473 6.21248 8.59678 6.52717 8.55212C6.82414 8.50998 7.19842 8.51 7.64797 8.51001H7.64798H8.35035H8.35037C8.79992 8.51 9.1742 8.50998 9.47117 8.55212C9.78586 8.59678 10.0645 8.69473 10.2859 8.9284C10.5048 9.15941 10.5942 9.44563 10.6353 9.76852C10.6747 10.0781 10.6747 10.4698 10.6747 10.9472V15.2083H11.665C13.0792 15.2083 13.7863 15.2083 14.2256 14.769C14.665 14.3296 14.665 13.6225 14.665 12.2083V7.33507C14.665 6.60362 14.665 6.23789 14.5083 5.92261C14.3517 5.60732 14.0603 5.38637 13.4774 4.94446L9.81241 2.16583C8.94034 1.50466 8.5043 1.17407 7.99996 1.17407ZM9.97472 15.2083V10.9708C9.97472 10.4639 9.97406 10.1171 9.94092 9.85698C9.90883 9.60507 9.85177 9.48797 9.77777 9.40986C9.70628 9.33441 9.60276 9.27781 9.37283 9.24518C9.1308 9.21084 8.80656 9.21001 8.32473 9.21001H7.67361C7.19178 9.21001 6.86754 9.21084 6.62551 9.24518C6.39557 9.27781 6.29205 9.33441 6.22057 9.40986C6.14656 9.48797 6.08951 9.60507 6.05742 9.85698C6.02428 10.1171 6.02361 10.4639 6.02361 10.9708V15.2083H9.97472Z" fill="black"/>
</svg>